<mxfile host="app.diagrams.net" modified="2024-06-24T06:19:27.588Z" agent="Mozilla/5.0 (Windows NT 10.0; Win64; x64) AppleWebKit/537.36 (KHTML, like Gecko) Chrome/126.0.0.0 Safari/537.36 Edg/126.0.0.0" etag="2av16qPQChRkx5kdgI_7" version="24.4.14" type="github">
  <diagram name="Page-1" id="xVhTuISEWn58oLFt3E9C">
    <mxGraphModel dx="746" dy="459" grid="1" gridSize="10" guides="1" tooltips="1" connect="1" arrows="1" fold="1" page="1" pageScale="1" pageWidth="850" pageHeight="1100" math="0" shadow="0">
      <root>
        <mxCell id="0" />
        <mxCell id="1" parent="0" />
        <mxCell id="n0Xr9wfvZ5Cfgjwf-X7h-1" value="AWS Account" style="points=[[0,0],[0.25,0],[0.5,0],[0.75,0],[1,0],[1,0.25],[1,0.5],[1,0.75],[1,1],[0.75,1],[0.5,1],[0.25,1],[0,1],[0,0.75],[0,0.5],[0,0.25]];outlineConnect=0;gradientColor=none;html=1;whiteSpace=wrap;fontSize=12;fontStyle=0;container=1;pointerEvents=0;collapsible=0;recursiveResize=0;shape=mxgraph.aws4.group;grIcon=mxgraph.aws4.group_account;strokeColor=#CD2264;fillColor=none;verticalAlign=top;align=left;spacingLeft=30;fontColor=#CD2264;dashed=0;" vertex="1" parent="1">
          <mxGeometry x="230" y="80" width="360" height="360" as="geometry" />
        </mxCell>
        <mxCell id="n0Xr9wfvZ5Cfgjwf-X7h-2" value="VPC" style="points=[[0,0],[0.25,0],[0.5,0],[0.75,0],[1,0],[1,0.25],[1,0.5],[1,0.75],[1,1],[0.75,1],[0.5,1],[0.25,1],[0,1],[0,0.75],[0,0.5],[0,0.25]];outlineConnect=0;gradientColor=none;html=1;whiteSpace=wrap;fontSize=12;fontStyle=0;container=1;pointerEvents=0;collapsible=0;recursiveResize=0;shape=mxgraph.aws4.group;grIcon=mxgraph.aws4.group_vpc2;strokeColor=#8C4FFF;fillColor=none;verticalAlign=top;align=left;spacingLeft=30;fontColor=#AAB7B8;dashed=0;" vertex="1" parent="n0Xr9wfvZ5Cfgjwf-X7h-1">
          <mxGeometry x="80" y="78" width="160" height="240" as="geometry" />
        </mxCell>
        <mxCell id="n0Xr9wfvZ5Cfgjwf-X7h-3" value="" style="sketch=0;outlineConnect=0;fontColor=#232F3E;gradientColor=none;fillColor=#8C4FFF;strokeColor=none;dashed=0;verticalLabelPosition=bottom;verticalAlign=top;align=center;html=1;fontSize=12;fontStyle=0;aspect=fixed;pointerEvents=1;shape=mxgraph.aws4.endpoints;" vertex="1" parent="n0Xr9wfvZ5Cfgjwf-X7h-2">
          <mxGeometry x="40" y="50" width="60" height="60" as="geometry" />
        </mxCell>
        <mxCell id="n0Xr9wfvZ5Cfgjwf-X7h-13" style="edgeStyle=orthogonalEdgeStyle;rounded=0;orthogonalLoop=1;jettySize=auto;html=1;exitX=0.5;exitY=0;exitDx=0;exitDy=0;exitPerimeter=0;" edge="1" parent="n0Xr9wfvZ5Cfgjwf-X7h-2" source="n0Xr9wfvZ5Cfgjwf-X7h-9" target="n0Xr9wfvZ5Cfgjwf-X7h-3">
          <mxGeometry relative="1" as="geometry" />
        </mxCell>
        <mxCell id="n0Xr9wfvZ5Cfgjwf-X7h-9" value="" style="sketch=0;points=[[0,0,0],[0.25,0,0],[0.5,0,0],[0.75,0,0],[1,0,0],[0,1,0],[0.25,1,0],[0.5,1,0],[0.75,1,0],[1,1,0],[0,0.25,0],[0,0.5,0],[0,0.75,0],[1,0.25,0],[1,0.5,0],[1,0.75,0]];outlineConnect=0;fontColor=#232F3E;fillColor=#ED7100;strokeColor=#ffffff;dashed=0;verticalLabelPosition=bottom;verticalAlign=top;align=center;html=1;fontSize=12;fontStyle=0;aspect=fixed;shape=mxgraph.aws4.resourceIcon;resIcon=mxgraph.aws4.lambda;" vertex="1" parent="n0Xr9wfvZ5Cfgjwf-X7h-2">
          <mxGeometry x="20" y="180" width="40" height="40" as="geometry" />
        </mxCell>
        <mxCell id="n0Xr9wfvZ5Cfgjwf-X7h-12" style="edgeStyle=orthogonalEdgeStyle;rounded=0;orthogonalLoop=1;jettySize=auto;html=1;exitX=0.5;exitY=0;exitDx=0;exitDy=0;exitPerimeter=0;" edge="1" parent="n0Xr9wfvZ5Cfgjwf-X7h-2" source="n0Xr9wfvZ5Cfgjwf-X7h-10" target="n0Xr9wfvZ5Cfgjwf-X7h-3">
          <mxGeometry relative="1" as="geometry" />
        </mxCell>
        <mxCell id="n0Xr9wfvZ5Cfgjwf-X7h-10" value="" style="sketch=0;points=[[0,0,0],[0.25,0,0],[0.5,0,0],[0.75,0,0],[1,0,0],[0,1,0],[0.25,1,0],[0.5,1,0],[0.75,1,0],[1,1,0],[0,0.25,0],[0,0.5,0],[0,0.75,0],[1,0.25,0],[1,0.5,0],[1,0.75,0]];outlineConnect=0;fontColor=#232F3E;fillColor=#ED7100;strokeColor=#ffffff;dashed=0;verticalLabelPosition=bottom;verticalAlign=top;align=center;html=1;fontSize=12;fontStyle=0;aspect=fixed;shape=mxgraph.aws4.resourceIcon;resIcon=mxgraph.aws4.ecs;" vertex="1" parent="n0Xr9wfvZ5Cfgjwf-X7h-2">
          <mxGeometry x="82" y="180" width="40" height="40" as="geometry" />
        </mxCell>
        <mxCell id="n0Xr9wfvZ5Cfgjwf-X7h-22" value="Resources inside VPC" style="text;strokeColor=none;align=center;fillColor=none;html=1;verticalAlign=middle;whiteSpace=wrap;rounded=0;" vertex="1" parent="n0Xr9wfvZ5Cfgjwf-X7h-2">
          <mxGeometry x="100" y="130" width="60" height="42" as="geometry" />
        </mxCell>
        <mxCell id="n0Xr9wfvZ5Cfgjwf-X7h-4" value="AppSync Private API&amp;nbsp;&lt;div&gt;Feature Enabled&lt;/div&gt;" style="sketch=0;points=[[0,0,0],[0.25,0,0],[0.5,0,0],[0.75,0,0],[1,0,0],[0,1,0],[0.25,1,0],[0.5,1,0],[0.75,1,0],[1,1,0],[0,0.25,0],[0,0.5,0],[0,0.75,0],[1,0.25,0],[1,0.5,0],[1,0.75,0]];outlineConnect=0;fontColor=#232F3E;fillColor=#E7157B;strokeColor=#ffffff;dashed=0;verticalLabelPosition=bottom;verticalAlign=top;align=center;html=1;fontSize=12;fontStyle=0;aspect=fixed;shape=mxgraph.aws4.resourceIcon;resIcon=mxgraph.aws4.appsync;" vertex="1" parent="n0Xr9wfvZ5Cfgjwf-X7h-1">
          <mxGeometry x="270" y="81" width="78" height="78" as="geometry" />
        </mxCell>
        <mxCell id="n0Xr9wfvZ5Cfgjwf-X7h-5" style="edgeStyle=orthogonalEdgeStyle;rounded=0;orthogonalLoop=1;jettySize=auto;html=1;" edge="1" parent="n0Xr9wfvZ5Cfgjwf-X7h-1" source="n0Xr9wfvZ5Cfgjwf-X7h-3" target="n0Xr9wfvZ5Cfgjwf-X7h-4">
          <mxGeometry relative="1" as="geometry" />
        </mxCell>
        <mxCell id="n0Xr9wfvZ5Cfgjwf-X7h-14" value="" style="edgeStyle=none;orthogonalLoop=1;jettySize=auto;html=1;rounded=0;" edge="1" parent="1" target="n0Xr9wfvZ5Cfgjwf-X7h-3">
          <mxGeometry width="80" relative="1" as="geometry">
            <mxPoint x="120" y="240" as="sourcePoint" />
            <mxPoint x="460" y="340" as="targetPoint" />
            <Array as="points" />
          </mxGeometry>
        </mxCell>
        <mxCell id="n0Xr9wfvZ5Cfgjwf-X7h-17" value="X" style="text;strokeColor=none;align=center;fillColor=none;html=1;verticalAlign=middle;whiteSpace=wrap;rounded=0;fontSize=41;fontColor=#FF0000;" vertex="1" parent="1">
          <mxGeometry x="170" y="230" width="60" height="30" as="geometry" />
        </mxCell>
        <mxCell id="n0Xr9wfvZ5Cfgjwf-X7h-19" value="" style="edgeStyle=none;orthogonalLoop=1;jettySize=auto;html=1;rounded=0;entryX=0.5;entryY=0;entryDx=0;entryDy=0;entryPerimeter=0;" edge="1" parent="1" target="n0Xr9wfvZ5Cfgjwf-X7h-4">
          <mxGeometry width="80" relative="1" as="geometry">
            <mxPoint x="120" y="140" as="sourcePoint" />
            <mxPoint x="460" y="340" as="targetPoint" />
            <Array as="points">
              <mxPoint x="539" y="140" />
            </Array>
          </mxGeometry>
        </mxCell>
        <mxCell id="n0Xr9wfvZ5Cfgjwf-X7h-20" value="X" style="text;strokeColor=none;align=center;fillColor=none;html=1;verticalAlign=middle;whiteSpace=wrap;rounded=0;fontSize=41;fontColor=#FF0000;" vertex="1" parent="1">
          <mxGeometry x="170" y="120" width="60" height="30" as="geometry" />
        </mxCell>
        <mxCell id="n0Xr9wfvZ5Cfgjwf-X7h-21" value="Resources outside VPC" style="text;strokeColor=none;align=center;fillColor=none;html=1;verticalAlign=middle;whiteSpace=wrap;rounded=0;" vertex="1" parent="1">
          <mxGeometry x="120" y="160" width="60" height="50" as="geometry" />
        </mxCell>
      </root>
    </mxGraphModel>
  </diagram>
</mxfile>
